<svg xmlns="http://www.w3.org/2000/svg" viewBox="0 0 512 512" role="img" aria-labelledby="title">
  <title id="title">Address Lite home location icon</title>
  <rect width="512" height="512" fill="#101827"/>
  <path d="M256 68c-96 0-168 71-168 162 0 116 134 219 168 244 34-25 168-128 168-244 0-91-72-162-168-162Z" fill="#f8fbff"/>
  <path d="m158 234 98-82 98 82v104h-66v-66h-64v66h-66V234Z" fill="#101827"/>
  <path d="m144 232 112-94 112 94-22 27-90-75-90 75-22-27Z" fill="#3f7ee8"/>
  <rect x="238" y="285" width="36" height="53" rx="4" fill="#3f7ee8"/>
</svg>
